<svg width="250" height="250" viewBox="0 0 250 250" fill="none" xmlns="http://www.w3.org/2000/svg">
<rect x="2.5" y="2.5" width="245" height="245" fill="#006CFF" stroke="white" stroke-width="5"/>
<path d="M120.933 168.495L131.598 179.025V181.86L120.933 192.39L110.268 181.86V179.025L120.933 168.495ZM163.203 103.32L172.248 90.225L173.598 90.9C174.948 96.03 176.028 100.665 176.838 104.805C177.648 108.945 178.233 113.355 178.593 118.035L175.218 121.95L163.203 103.32ZM103.398 153C94.8478 153 87.8728 151.605 82.4728 148.815C77.0728 145.935 73.1578 142.11 70.7278 137.34C68.2978 132.57 67.0828 127.08 67.0828 120.87C67.0828 116.91 67.7578 112.95 69.1078 108.99C70.4578 104.94 72.5278 101.025 75.3178 97.245L76.3978 97.92C75.2278 99.9 74.2828 102.105 73.5628 104.535C72.8428 106.875 72.4828 108.99 72.4828 110.88C72.4828 114.21 74.6428 116.865 78.9628 118.845C83.3728 120.735 90.3928 121.86 100.023 122.22C101.373 122.31 103.533 122.355 106.503 122.355C117.393 122.355 129.903 121.995 144.033 121.275C158.253 120.465 168.963 119.385 176.163 118.035H178.593L168.738 147.195C161.898 148.905 151.728 150.3 138.228 151.38C124.728 152.46 113.118 153 103.398 153Z" fill="#E7F1FF"/>
</svg>
