<svg width="263" height="134" viewBox="0 0 263 134" fill="none" xmlns="http://www.w3.org/2000/svg">
<path d="M147.42 16.065L156.06 2.16L158.085 2.835V91.665L150.66 100.98L147.42 16.065ZM173.475 101.25C170.055 101.25 166.815 100.125 163.755 97.875C160.695 95.625 158.085 92.295 155.925 87.885C153.855 83.385 152.595 77.985 152.145 71.685L157.41 63.72C158.04 65.61 159.165 67.05 160.785 68.04C162.405 68.94 164.25 69.525 166.32 69.795C168.39 70.065 170.775 70.2 173.475 70.2C174.285 70.2 174.915 70.56 175.365 71.28C175.905 72 176.175 73.035 176.175 74.385V97.74C176.175 100.08 175.275 101.25 173.475 101.25ZM76.6801 133.245C64.6201 133.245 54.0901 131.805 45.0901 128.925C36.0901 126.045 28.5301 122.085 22.4101 117.045C16.2901 112.005 11.0251 106.02 6.61512 99.09C4.18512 94.59 2.47512 89.955 1.48512 85.185C0.495117 80.415 0.135117 76.005 0.405117 71.955H1.21512C3.01512 75.375 4.95012 78.48 7.02012 81.27C9.09012 84.06 11.4301 86.625 14.0401 88.965C18.0001 92.205 22.8151 95.085 28.4851 97.605C34.1551 100.035 41.0401 101.97 49.1401 103.41C57.3301 104.85 66.5101 105.57 76.6801 105.57C86.8501 105.57 96.6601 105.03 106.11 103.95C115.56 102.87 124.515 101.205 132.975 98.955C141.435 96.615 148.995 93.645 155.655 90.045L158.085 91.665L151.875 115.695C144.135 121.275 133.56 125.595 120.15 128.655C106.74 131.715 92.2501 133.245 76.6801 133.245ZM173.289 109.745L183.954 120.275V123.11L173.289 133.64L162.624 123.11V120.275L173.289 109.745ZM173.429 101.25C171.629 101.25 170.729 100.575 170.729 99.225V72.495C170.729 70.965 171.629 70.2 173.429 70.2C177.209 70.2 180.809 69.885 184.229 69.255C187.739 68.535 190.889 67.545 193.679 66.285L194.219 72.495L180.719 51.57L189.764 38.475L191.114 39.15C192.464 43.47 193.544 47.655 194.354 51.705C195.164 55.755 195.974 60.615 196.784 66.285L187.604 96.795C185.444 98.235 182.969 99.36 180.179 100.17C177.389 100.89 175.139 101.25 173.429 101.25ZM239.58 101.25C234.45 101.25 229.95 99.9 226.08 97.2C222.3 94.41 219.33 90.765 217.17 86.265C215.1 81.675 213.885 76.725 213.525 71.415L209.61 14.175L218.79 -8.04663e-06L220.41 0.539993V66.96C223.56 68.04 226.8 68.85 230.13 69.39C233.46 69.93 236.7 70.2 239.85 70.2C241.47 70.2 242.28 71.235 242.28 73.305V98.415C242.28 99.315 242.1 100.035 241.74 100.575C241.38 101.025 240.66 101.25 239.58 101.25ZM239.471 109.745L250.136 120.275V123.11L239.471 133.64L228.806 123.11V120.275L239.471 109.745ZM239.61 101.25C237.81 101.25 236.91 100.575 236.91 99.225V72.495C236.91 70.965 237.81 70.2 239.61 70.2C243.39 70.2 246.99 69.885 250.41 69.255C253.92 68.535 257.07 67.545 259.86 66.285L260.4 72.495L246.9 51.57L255.945 38.475L257.295 39.15C258.645 43.47 259.725 47.655 260.535 51.705C261.345 55.755 262.155 60.615 262.965 66.285L253.785 96.795C251.625 98.235 249.15 99.36 246.36 100.17C243.57 100.89 241.32 101.25 239.61 101.25Z" fill="white"/>
</svg>
